<svg width="339" height="37" viewBox="0 0 339 37" fill="none" xmlns="http://www.w3.org/2000/svg">
<path d="M19.492 9.864C19.492 11.328 19.156 12.672 18.484 13.896C17.812 15.096 16.78 16.068 15.388 16.812C13.996 17.556 12.268 17.928 10.204 17.928H6.388V27H0.232V1.728H10.204C12.22 1.728 13.924 2.076 15.316 2.772C16.708 3.468 17.752 4.428 18.448 5.652C19.144 6.876 19.492 8.28 19.492 9.864ZM9.736 13.032C10.912 13.032 11.788 12.756 12.364 12.204C12.94 11.652 13.228 10.872 13.228 9.864C13.228 8.856 12.94 8.076 12.364 7.524C11.788 6.972 10.912 6.696 9.736 6.696H6.388V13.032H9.736ZM28.8528 10.26C29.5728 9.156 30.4728 8.292 31.5528 7.668C32.6328 7.02 33.8328 6.696 35.1528 6.696V13.212H33.4608C31.9248 13.212 30.7728 13.548 30.0048 14.22C29.2368 14.868 28.8528 16.02 28.8528 17.676V27H22.6968V6.912H28.8528V10.26ZM47.2393 27.288C45.2713 27.288 43.4953 26.868 41.9113 26.028C40.3513 25.188 39.1153 23.988 38.2033 22.428C37.3153 20.868 36.8713 19.044 36.8713 16.956C36.8713 14.892 37.3273 13.08 38.2393 11.52C39.1513 9.936 40.3993 8.724 41.9833 7.884C43.5673 7.044 45.3433 6.624 47.3113 6.624C49.2793 6.624 51.0553 7.044 52.6393 7.884C54.2233 8.724 55.4713 9.936 56.3833 11.52C57.2953 13.08 57.7513 14.892 57.7513 16.956C57.7513 19.02 57.2833 20.844 56.3473 22.428C55.4353 23.988 54.1753 25.188 52.5673 26.028C50.9833 26.868 49.2073 27.288 47.2393 27.288ZM47.2393 21.96C48.4153 21.96 49.4113 21.528 50.2273 20.664C51.0673 19.8 51.4873 18.564 51.4873 16.956C51.4873 15.348 51.0793 14.112 50.2633 13.248C49.4713 12.384 48.4873 11.952 47.3113 11.952C46.1113 11.952 45.1153 12.384 44.3233 13.248C43.5313 14.088 43.1353 15.324 43.1353 16.956C43.1353 18.564 43.5193 19.8 44.2873 20.664C45.0793 21.528 46.0633 21.96 47.2393 21.96ZM59.7932 16.92C59.7932 14.856 60.1772 13.044 60.9452 11.484C61.7372 9.924 62.8052 8.724 64.1492 7.884C65.4932 7.044 66.9932 6.624 68.6492 6.624C69.9692 6.624 71.1692 6.9 72.2492 7.452C73.3532 8.004 74.2172 8.748 74.8412 9.684V0.36H80.9972V27H74.8412V24.12C74.2652 25.08 73.4372 25.848 72.3572 26.424C71.3012 27 70.0652 27.288 68.6492 27.288C66.9932 27.288 65.4932 26.868 64.1492 26.028C62.8052 25.164 61.7372 23.952 60.9452 22.392C60.1772 20.808 59.7932 18.984 59.7932 16.92ZM74.8412 16.956C74.8412 15.42 74.4092 14.208 73.5452 13.32C72.7052 12.432 71.6732 11.988 70.4492 11.988C69.2252 11.988 68.1812 12.432 67.3172 13.32C66.4772 14.184 66.0572 15.384 66.0572 16.92C66.0572 18.456 66.4772 19.68 67.3172 20.592C68.1812 21.48 69.2252 21.924 70.4492 21.924C71.6732 21.924 72.7052 21.48 73.5452 20.592C74.4092 19.704 74.8412 18.492 74.8412 16.956ZM105.287 6.912V27H99.1308V24.264C98.5068 25.152 97.6548 25.872 96.5748 26.424C95.5188 26.952 94.3428 27.216 93.0468 27.216C91.5108 27.216 90.1548 26.88 88.9788 26.208C87.8028 25.512 86.8908 24.516 86.2428 23.22C85.5948 21.924 85.2708 20.4 85.2708 18.648V6.912H91.3908V17.82C91.3908 19.164 91.7388 20.208 92.4348 20.952C93.1308 21.696 94.0668 22.068 95.2428 22.068C96.4428 22.068 97.3908 21.696 98.0868 20.952C98.7828 20.208 99.1308 19.164 99.1308 17.82V6.912H105.287ZM108.485 16.956C108.485 14.868 108.905 13.044 109.745 11.484C110.609 9.924 111.797 8.724 113.309 7.884C114.845 7.044 116.597 6.624 118.565 6.624C121.085 6.624 123.185 7.284 124.865 8.604C126.569 9.924 127.685 11.784 128.213 14.184H121.661C121.109 12.648 120.041 11.88 118.457 11.88C117.329 11.88 116.429 12.324 115.757 13.212C115.085 14.076 114.749 15.324 114.749 16.956C114.749 18.588 115.085 19.848 115.757 20.736C116.429 21.6 117.329 22.032 118.457 22.032C120.041 22.032 121.109 21.264 121.661 19.728H128.213C127.685 22.08 126.569 23.928 124.865 25.272C123.161 26.616 121.061 27.288 118.565 27.288C116.597 27.288 114.845 26.868 113.309 26.028C111.797 25.188 110.609 23.988 109.745 22.428C108.905 20.868 108.485 19.044 108.485 16.956ZM142.701 21.78V27H139.569C137.337 27 135.597 26.46 134.349 25.38C133.101 24.276 132.477 22.488 132.477 20.016V12.024H130.029V6.912H132.477V2.016H138.633V6.912H142.665V12.024H138.633V20.088C138.633 20.688 138.777 21.12 139.065 21.384C139.353 21.648 139.833 21.78 140.505 21.78H142.701ZM182.379 1.728V27H176.223V11.844L170.571 27H165.603L159.915 11.808V27H153.759V1.728H161.031L168.123 19.224L175.143 1.728H182.379ZM185.582 16.92C185.582 14.856 185.966 13.044 186.734 11.484C187.526 9.924 188.594 8.724 189.938 7.884C191.282 7.044 192.782 6.624 194.438 6.624C195.854 6.624 197.09 6.912 198.146 7.488C199.226 8.064 200.054 8.82 200.63 9.756V6.912H206.786V27H200.63V24.156C200.03 25.092 199.19 25.848 198.11 26.424C197.054 27 195.818 27.288 194.402 27.288C192.77 27.288 191.282 26.868 189.938 26.028C188.594 25.164 187.526 23.952 186.734 22.392C185.966 20.808 185.582 18.984 185.582 16.92ZM200.63 16.956C200.63 15.42 200.198 14.208 199.334 13.32C198.494 12.432 197.462 11.988 196.238 11.988C195.014 11.988 193.97 12.432 193.106 13.32C192.266 14.184 191.846 15.384 191.846 16.92C191.846 18.456 192.266 19.68 193.106 20.592C193.97 21.48 195.014 21.924 196.238 21.924C197.462 21.924 198.494 21.48 199.334 20.592C200.198 19.704 200.63 18.492 200.63 16.956ZM223.48 6.696C225.832 6.696 227.704 7.464 229.096 9C230.512 10.512 231.22 12.6 231.22 15.264V27H225.1V16.092C225.1 14.748 224.752 13.704 224.056 12.96C223.36 12.216 222.424 11.844 221.248 11.844C220.072 11.844 219.136 12.216 218.44 12.96C217.744 13.704 217.396 14.748 217.396 16.092V27H211.24V6.912H217.396V9.576C218.02 8.688 218.86 7.992 219.916 7.488C220.972 6.96 222.16 6.696 223.48 6.696ZM234.274 16.92C234.274 14.856 234.658 13.044 235.426 11.484C236.218 9.924 237.286 8.724 238.63 7.884C239.974 7.044 241.474 6.624 243.13 6.624C244.546 6.624 245.782 6.912 246.838 7.488C247.918 8.064 248.746 8.82 249.322 9.756V6.912H255.478V27H249.322V24.156C248.722 25.092 247.882 25.848 246.802 26.424C245.746 27 244.51 27.288 243.094 27.288C241.462 27.288 239.974 26.868 238.63 26.028C237.286 25.164 236.218 23.952 235.426 22.392C234.658 20.808 234.274 18.984 234.274 16.92ZM249.322 16.956C249.322 15.42 248.89 14.208 248.026 13.32C247.186 12.432 246.154 11.988 244.93 11.988C243.706 11.988 242.662 12.432 241.798 13.32C240.958 14.184 240.538 15.384 240.538 16.92C240.538 18.456 240.958 19.68 241.798 20.592C242.662 21.48 243.706 21.924 244.93 21.924C246.154 21.924 247.186 21.48 248.026 20.592C248.89 19.704 249.322 18.492 249.322 16.956ZM267.563 6.624C268.979 6.624 270.215 6.912 271.271 7.488C272.351 8.064 273.179 8.82 273.755 9.756V6.912H279.911V26.964C279.911 28.812 279.539 30.48 278.795 31.968C278.075 33.48 276.959 34.68 275.447 35.568C273.959 36.456 272.099 36.9 269.867 36.9C266.891 36.9 264.479 36.192 262.631 34.776C260.783 33.384 259.727 31.488 259.463 29.088H265.547C265.739 29.856 266.195 30.456 266.915 30.888C267.635 31.344 268.523 31.572 269.579 31.572C270.851 31.572 271.859 31.2 272.603 30.456C273.371 29.736 273.755 28.572 273.755 26.964V24.12C273.155 25.056 272.327 25.824 271.271 26.424C270.215 27 268.979 27.288 267.563 27.288C265.907 27.288 264.407 26.868 263.063 26.028C261.719 25.164 260.651 23.952 259.859 22.392C259.091 20.808 258.707 18.984 258.707 16.92C258.707 14.856 259.091 13.044 259.859 11.484C260.651 9.924 261.719 8.724 263.063 7.884C264.407 7.044 265.907 6.624 267.563 6.624ZM273.755 16.956C273.755 15.42 273.323 14.208 272.459 13.32C271.619 12.432 270.587 11.988 269.363 11.988C268.139 11.988 267.095 12.432 266.231 13.32C265.391 14.184 264.971 15.384 264.971 16.92C264.971 18.456 265.391 19.68 266.231 20.592C267.095 21.48 268.139 21.924 269.363 21.924C270.587 21.924 271.619 21.48 272.459 20.592C273.323 19.704 273.755 18.492 273.755 16.956ZM303.301 16.632C303.301 17.208 303.265 17.808 303.193 18.432H289.261C289.357 19.68 289.753 20.64 290.449 21.312C291.169 21.96 292.045 22.284 293.077 22.284C294.613 22.284 295.681 21.636 296.281 20.34H302.833C302.497 21.66 301.885 22.848 300.997 23.904C300.133 24.96 299.041 25.788 297.721 26.388C296.401 26.988 294.925 27.288 293.293 27.288C291.325 27.288 289.573 26.868 288.037 26.028C286.501 25.188 285.301 23.988 284.437 22.428C283.573 20.868 283.141 19.044 283.141 16.956C283.141 14.868 283.561 13.044 284.401 11.484C285.265 9.924 286.465 8.724 288.001 7.884C289.537 7.044 291.301 6.624 293.293 6.624C295.237 6.624 296.965 7.032 298.477 7.848C299.989 8.664 301.165 9.828 302.005 11.34C302.869 12.852 303.301 14.616 303.301 16.632ZM297.001 15.012C297.001 13.956 296.641 13.116 295.921 12.492C295.201 11.868 294.301 11.556 293.221 11.556C292.189 11.556 291.313 11.856 290.593 12.456C289.897 13.056 289.465 13.908 289.297 15.012H297.001ZM312.704 10.26C313.424 9.156 314.324 8.292 315.404 7.668C316.484 7.02 317.684 6.696 319.004 6.696V13.212H317.312C315.776 13.212 314.624 13.548 313.856 14.22C313.088 14.868 312.704 16.02 312.704 17.676V27H306.548V6.912H312.704V10.26ZM330.119 27.288C328.367 27.288 326.807 26.988 325.439 26.388C324.071 25.788 322.991 24.972 322.199 23.94C321.407 22.884 320.963 21.708 320.867 20.412H326.951C327.023 21.108 327.347 21.672 327.923 22.104C328.499 22.536 329.207 22.752 330.047 22.752C330.815 22.752 331.403 22.608 331.811 22.32C332.243 22.008 332.459 21.612 332.459 21.132C332.459 20.556 332.159 20.136 331.559 19.872C330.959 19.584 329.987 19.272 328.643 18.936C327.203 18.6 326.003 18.252 325.043 17.892C324.083 17.508 323.255 16.92 322.559 16.128C321.863 15.312 321.515 14.22 321.515 12.852C321.515 11.7 321.827 10.656 322.451 9.72C323.099 8.76 324.035 8.004 325.259 7.452C326.507 6.9 327.983 6.624 329.687 6.624C332.207 6.624 334.187 7.248 335.627 8.496C337.091 9.744 337.931 11.4 338.147 13.464H332.459C332.363 12.768 332.051 12.216 331.523 11.808C331.019 11.4 330.347 11.196 329.507 11.196C328.787 11.196 328.235 11.34 327.851 11.628C327.467 11.892 327.275 12.264 327.275 12.744C327.275 13.32 327.575 13.752 328.175 14.04C328.799 14.328 329.759 14.616 331.055 14.904C332.543 15.288 333.755 15.672 334.691 16.056C335.627 16.416 336.443 17.016 337.139 17.856C337.859 18.672 338.231 19.776 338.255 21.168C338.255 22.344 337.919 23.4 337.247 24.336C336.599 25.248 335.651 25.968 334.403 26.496C333.179 27.024 331.751 27.288 330.119 27.288Z" fill="#2F281E"/>
</svg>
